<?xml version="1.0" encoding="UTF-8"?><svg id="a" xmlns="http://www.w3.org/2000/svg" viewBox="0 0 169.87 169.87"><rect x="84.04" y="78.66" width="57.5" height="12.93" style="fill:#ff7701;"/><g><path d="M78.47,128.47c-20.8-3.33-36.77-21.43-36.77-43.35,0-24.29,19.61-43.9,43.68-43.9,20.28,0,37.44,14.93,42.34,32.76h13.82c-5.13-26.74-28.3-46.13-56.16-46.13-31.42,0-57.05,25.63-57.05,57.27,0,29.29,21.96,53.41,50.14,56.84v-13.49Z" style="fill:#ff7701;"/><path d="M102.36,125.43c-3.33,1.46-6.88,2.52-10.59,3.09l.11,13.5c5.56-.61,10.88-2,15.84-4.07l-5.36-12.52Z" style="fill:#ff7701;"/><path d="M119.25,112.51c-2.53,3.1-5.47,5.89-8.75,8.26l7.9,11.31c4.34-3.03,8.22-6.67,11.55-10.78l-10.7-8.78Z" style="fill:#ff7701;"/><path d="M124.36,104.77l12.15,6.34c2.31-4.6,4.03-9.58,5.04-14.84h-13.82c-.81,2.93-1.94,5.78-3.36,8.51Z" style="fill:#ff7701;"/></g><rect x="2.5" y="2.5" width="164.87" height="164.87" rx="22.17" ry="22.17" style="fill:none; stroke:#ff7701; stroke-miterlimit:10; stroke-width:5px;"/></svg>